<svg width="48" height="48" viewBox="0 0 48 48" fill="none" xmlns="http://www.w3.org/2000/svg">
<g clip-path="url(#clip0_482_25853)">
<path fill-rule="evenodd" clip-rule="evenodd" d="M22.9393 7.93934C23.5251 7.35355 24.4749 7.35355 25.0607 7.93934L38.5607 21.4393C39.1464 22.0251 39.1464 22.9749 38.5607 23.5607C37.9749 24.1464 37.0251 24.1464 36.4393 23.5607L25.5 12.6213L25.5 39C25.5 39.8284 24.8284 40.5 24 40.5C23.1716 40.5 22.5 39.8284 22.5 39L22.5 12.6213L11.5607 23.5607C10.9749 24.1464 10.0251 24.1464 9.43934 23.5607C8.85355 22.9749 8.85355 22.0251 9.43934 21.4393L22.9393 7.93934Z" fill="#222222"/>
</g>
<defs>
<clipPath id="clip0_482_25853">
<rect width="48" height="48" fill="white"/>
</clipPath>
</defs>
</svg>
